<svg width="24" height="24" viewBox="0 0 24 24" fill="none" xmlns="http://www.w3.org/2000/svg">
<path fill-rule="evenodd" clip-rule="evenodd" d="M7.17 5L9 3H15L16.83 5H20C21.1 5 22 5.9 22 7V19C22 20.1 21.1 21 20 21H4C2.9 21 2 20.1 2 19V7C2 5.9 2.9 5 4 5H7.17ZM7 13C7 15.76 9.24 18 12 18C14.76 18 17 15.76 17 13C17 10.24 14.76 8 12 8C9.24 8 7 10.24 7 13ZM15.2008 13.0008C15.2008 14.7681 13.7681 16.2008 12.0008 16.2008C10.2335 16.2008 8.80078 14.7681 8.80078 13.0008C8.80078 11.2335 10.2335 9.80078 12.0008 9.80078C13.7681 9.80078 15.2008 11.2335 15.2008 13.0008Z" fill="#00112C"/>
</svg>
