<svg width="22" height="16" viewBox="0 0 22 16" fill="none" xmlns="http://www.w3.org/2000/svg">
<path d="M12 4C12 6.20914 10.2091 8 8 8C5.79086 8 4 6.20914 4 4C4 1.79086 5.79086 0 8 0C10.2091 0 12 1.79086 12 4Z" fill="#00112C"/>
<path d="M17.9999 12.9989C17.9999 11.3189 17.0399 10.0589 15.6699 9.12891C18.4299 9.52891 21.9999 10.8189 21.9999 12.9989V15.9989H17.9999V12.9989Z" fill="#00112C"/>
<path d="M13.9999 8C16.2099 8 17.9999 6.21 17.9999 4C17.9999 1.79 16.2099 0 13.9999 0C13.5299 0 13.0899 0.0999998 12.6699 0.24C13.4999 1.27 13.9999 2.58 13.9999 4C13.9999 5.42 13.4999 6.73 12.6699 7.76C13.0899 7.9 13.5299 8 13.9999 8Z" fill="#00112C"/>
<path d="M0 13C0 10.34 5.33 9 8 9C10.67 9 16 10.34 16 13V16H0V13Z" fill="#00112C"/>
</svg>
